ISO-10303-21;
HEADER;
FILE_DESCRIPTION (( 'STEP AP214' ),
    '1' );
FILE_NAME ('Èý½×ÌÝÖák.STEP',
    '2025-02-19T06:25:32',
    ( '' ),
    ( '' ),
    'SwSTEP 2.0',
    'SolidWorks 2021',
    '' );
FILE_SCHEMA (( 'AUTOMOTIVE_DESIGN' ));
ENDSEC;

DATA;
#1 = CONICAL_SURFACE ( 'NONE', #143, 4.000000000000010658, 0.7853981633974445042 ) ;
#2 = PRESENTATION_STYLE_ASSIGNMENT (( #125 ) ) ;
#3 = ORIENTED_EDGE ( 'NONE', *, *, #287, .T. ) ;
#4 = LINE ( 'NONE', #454, #168 ) ;
#5 = CONICAL_SURFACE ( 'NONE', #286, 1.999999999999994893, 0.7853981633974471688 ) ;
#6 = EDGE_LOOP ( 'NONE', ( #158, #117, #223, #153 ) ) ;
#7 = CARTESIAN_POINT ( 'NONE',  ( 0.000000000000000000, 0.000000000000000000, 28.99999999999998934 ) ) ;
#8 = EDGE_CURVE ( 'NONE', #260, #294, #4, .T. ) ;
#9 = EDGE_LOOP ( 'NONE', ( #85, #434 ) ) ;
#10 = DIRECTION ( 'NONE',  ( 1.000000000000000000, 0.000000000000000000, 0.000000000000000000 ) ) ;
#11 = VERTEX_POINT ( 'NONE', #284 ) ;
#12 = DIRECTION ( 'NONE',  ( 1.000000000000000000, 0.000000000000000000, 0.000000000000000000 ) ) ;
#13 = ORIENTED_EDGE ( 'NONE', *, *, #248, .T. ) ;
#14 = CONICAL_SURFACE ( 'NONE', #364, 6.000000000000001776, 0.7853981633974471688 ) ;
#15 = DIRECTION ( 'NONE',  ( 0.000000000000000000, 0.000000000000000000, -1.000000000000000000 ) ) ;
#16 = CARTESIAN_POINT ( 'NONE',  ( 0.000000000000000000, 0.000000000000000000, 19.00000000000000355 ) ) ;
#17 = EDGE_LOOP ( 'NONE', ( #31, #240, #181, #470 ) ) ;
#18 = DIRECTION ( 'NONE',  ( 1.000000000000000000, 0.000000000000000000, 0.000000000000000000 ) ) ;
#19 = CARTESIAN_POINT ( 'NONE',  ( -1.999999999999994893, 0.000000000000000000, 30.00000000000000000 ) ) ;
#20 = DIRECTION ( 'NONE',  ( -0.000000000000000000, -0.000000000000000000, -1.000000000000000000 ) ) ;
#21 = CARTESIAN_POINT ( 'NONE',  ( 0.000000000000000000, 0.000000000000000000, 10.00000000000000000 ) ) ;
#22 = EDGE_CURVE ( 'NONE', #260, #106, #59, .T. ) ;
#23 = DIRECTION ( 'NONE',  ( -0.000000000000000000, -0.000000000000000000, -1.000000000000000000 ) ) ;
#24 = CARTESIAN_POINT ( 'NONE',  ( 0.000000000000000000, 0.000000000000000000, 0.000000000000000000 ) ) ;
#25 = CARTESIAN_POINT ( 'NONE',  ( 3.000000000000000444, 3.673940397442060361E-16, 28.99999999999998934 ) ) ;
#26 = EDGE_CURVE ( 'NONE', #395, #258, #460, .T. ) ;
#27 = CARTESIAN_POINT ( 'NONE',  ( 0.000000000000000000, 0.000000000000000000, 20.00000000000000000 ) ) ;
#28 = CARTESIAN_POINT ( 'NONE',  ( 3.000000000000000444, 3.673940397442060361E-16, 30.00000000000000000 ) ) ;
#29 = CIRCLE ( 'NONE', #340, 7.000000000000000000 ) ;
#30 = ORIENTED_EDGE ( 'NONE', *, *, #310, .F. ) ;
#31 = ORIENTED_EDGE ( 'NONE', *, *, #435, .F. ) ;
#32 = ADVANCED_BREP_SHAPE_REPRESENTATION ( 'Èý½×ÌÝÖák', ( #244, #103, #109 ), #116 ) ;
#33 =( LENGTH_UNIT ( ) NAMED_UNIT ( * ) SI_UNIT ( .MILLI., .METRE. ) );
#34 = ORIENTED_EDGE ( 'NONE', *, *, #133, .T. ) ;
#35 = ORIENTED_EDGE ( 'NONE', *, *, #435, .T. ) ;
#36 = ADVANCED_FACE ( 'NONE', ( #321 ), #53, .T. ) ;
#37 = DIRECTION ( 'NONE',  ( 0.000000000000000000, 0.000000000000000000, 1.000000000000000000 ) ) ;
#38 = DIRECTION ( 'NONE',  ( 0.000000000000000000, 0.000000000000000000, 1.000000000000000000 ) ) ;
#39 = VECTOR ( 'NONE', #88, 1000.000000000000114 ) ;
#40 = ORIENTED_EDGE ( 'NONE', *, *, #100, .F. ) ;
#41 = DIRECTION ( 'NONE',  ( 0.000000000000000000, 0.000000000000000000, -1.000000000000000000 ) ) ;
#42 = AXIS2_PLACEMENT_3D ( 'NONE', #283, #393, #262 ) ;
#43 = ORIENTED_EDGE ( 'NONE', *, *, #365, .F. ) ;
#44 = DIRECTION ( 'NONE',  ( 0.000000000000000000, 0.000000000000000000, -1.000000000000000000 ) ) ;
#45 = EDGE_CURVE ( 'NONE', #327, #126, #281, .T. ) ;
#46 = ORIENTED_EDGE ( 'NONE', *, *, #175, .F. ) ;
#47 = CARTESIAN_POINT ( 'NONE',  ( -7.000000000000000000, 0.000000000000000000, 0.000000000000000000 ) ) ;
#48 = ORIENTED_EDGE ( 'NONE', *, *, #169, .T. ) ;
#49 = APPLICATION_CONTEXT ( 'automotive_design' ) ;
#50 = AXIS2_PLACEMENT_3D ( 'NONE', #315, #99, #424 ) ;
#51 = DIRECTION ( 'NONE',  ( 1.000000000000000000, 0.000000000000000000, 0.000000000000000000 ) ) ;
#52 = CARTESIAN_POINT ( 'NONE',  ( -7.000000000000000000, 0.000000000000000000, 10.00000000000000000 ) ) ;
#53 = CYLINDRICAL_SURFACE ( 'NONE', #239, 3.000000000000000444 ) ;
#54 = PRODUCT_DEFINITION ( 'Î´Öª', '', #170, #467 ) ;
#55 = AXIS2_PLACEMENT_3D ( 'NONE', #132, #200, #230 ) ;
#56 =( LENGTH_UNIT ( ) NAMED_UNIT ( * ) SI_UNIT ( .MILLI., .METRE. ) );
#57 = UNCERTAINTY_MEASURE_WITH_UNIT (LENGTH_MEASURE( 1.000000000000000082E-05 ), #56, 'distance_accuracy_value', 'NONE');
#58 = LINE ( 'NONE', #173, #447 ) ;
#59 = CIRCLE ( 'NONE', #405, 5.000000000000000000 ) ;
#60 = FACE_OUTER_BOUND ( 'NONE', #78, .T. ) ;
#61 = ADVANCED_FACE ( 'NONE', ( #177, #195 ), #189, .T. ) ;
#62 = CYLINDRICAL_SURFACE ( 'NONE', #97, 5.000000000000000000 ) ;
#63 = CARTESIAN_POINT ( 'NONE',  ( 1.999999999999994893, 2.449293598294700005E-16, 30.00000000000000000 ) ) ;
#64 = DIRECTION ( 'NONE',  ( -1.000000000000000000, 0.000000000000000000, 0.000000000000000000 ) ) ;
#65 = APPLICATION_CONTEXT ( 'automotive_design' ) ;
#66 = CIRCLE ( 'NONE', #208, 3.000000000000000444 ) ;
#67 = EDGE_LOOP ( 'NONE', ( #318, #252, #228, #359 ) ) ;
#68 = PLANE ( 'NONE',  #213 ) ;
#69 = CIRCLE ( 'NONE', #355, 6.000000000000001776 ) ;
#70 = EDGE_LOOP ( 'NONE', ( #46, #110, #358, #43 ) ) ;
#71 = AXIS2_PLACEMENT_3D ( 'NONE', #157, #37, #407 ) ;
#72 = CARTESIAN_POINT ( 'NONE',  ( 0.000000000000000000, 0.000000000000000000, 20.00000000000000000 ) ) ;
#73 = ORIENTED_EDGE ( 'NONE', *, *, #365, .T. ) ;
#74 = CARTESIAN_POINT ( 'NONE',  ( 0.000000000000000000, 0.000000000000000000, 30.00000000000000000 ) ) ;
#75 = ADVANCED_FACE ( 'NONE', ( #114 ), #1, .T. ) ;
#76 = ORIENTED_EDGE ( 'NONE', *, *, #257, .F. ) ;
#77 = DIRECTION ( 'NONE',  ( -0.000000000000000000, -0.000000000000000000, -1.000000000000000000 ) ) ;
#78 = EDGE_LOOP ( 'NONE', ( #254, #455, #3, #183 ) ) ;
#79 = VECTOR ( 'NONE', #20, 1000.000000000000000 ) ;
#80 = CARTESIAN_POINT ( 'NONE',  ( -6.000000000000001776, 0.000000000000000000, 10.00000000000000000 ) ) ;
#81 = AXIS2_PLACEMENT_3D ( 'NONE', #159, #456, #12 ) ;
#82 = ORIENTED_EDGE ( 'NONE', *, *, #169, .F. ) ;
#83 = FACE_OUTER_BOUND ( 'NONE', #6, .T. ) ;
#84 = ADVANCED_FACE ( 'NONE', ( #128 ), #413, .T. ) ;
#85 = ORIENTED_EDGE ( 'NONE', *, *, #353, .T. ) ;
#86 = CARTESIAN_POINT ( 'NONE',  ( -5.000000000000000000, 0.000000000000000000, 19.00000000000000355 ) ) ;
#87 = ORIENTED_EDGE ( 'NONE', *, *, #221, .F. ) ;
#88 = DIRECTION ( 'NONE',  ( 0.7071067811865465735, 8.659560562354922997E-17, -0.7071067811865483499 ) ) ;
#89 =( NAMED_UNIT ( * ) PLANE_ANGLE_UNIT ( ) SI_UNIT ( $, .RADIAN. ) );
#90 = PRODUCT_DEFINITION_SHAPE ( 'NONE', 'NONE',  #54 ) ;
#91 = DIRECTION ( 'NONE',  ( 0.000000000000000000, 0.000000000000000000, 1.000000000000000000 ) ) ;
#92 = CONICAL_SURFACE ( 'NONE', #245, 1.999999999999994893, 0.7853981633974471688 ) ;
#93 = EDGE_CURVE ( 'NONE', #334, #292, #111, .T. ) ;
#94 = CARTESIAN_POINT ( 'NONE',  ( 0.000000000000000000, 0.000000000000000000, 10.00000000000000000 ) ) ;
#95 = DIRECTION ( 'NONE',  ( 1.000000000000000000, 0.000000000000000000, 0.000000000000000000 ) ) ;
#96 = DIRECTION ( 'NONE',  ( -1.000000000000000000, 0.000000000000000000, 0.000000000000000000 ) ) ;
#97 = AXIS2_PLACEMENT_3D ( 'NONE', #27, #427, #349 ) ;
#98 = DIRECTION ( 'NONE',  ( 0.000000000000000000, 0.000000000000000000, -1.000000000000000000 ) ) ;
#99 = DIRECTION ( 'NONE',  ( 0.000000000000000000, 0.000000000000000000, 1.000000000000000000 ) ) ;
#100 = EDGE_CURVE ( 'NONE', #215, #395, #160, .T. ) ;
#101 = FILL_AREA_STYLE_COLOUR ( '', #282 ) ;
#102 = DIRECTION ( 'NONE',  ( 1.000000000000000000, 0.000000000000000000, 0.000000000000000000 ) ) ;
#103 = MANIFOLD_SOLID_BREP ( 'µ¹½Ç3', #256 ) ;
#104 = CARTESIAN_POINT ( 'NONE',  ( -3.000000000000000444, 0.000000000000000000, 28.99999999999998934 ) ) ;
#105 = CIRCLE ( 'NONE', #71, 5.000000000000000000 ) ;
#106 = VERTEX_POINT ( 'NONE', #299 ) ;
#107 = AXIS2_PLACEMENT_3D ( 'NONE', #332, #38, #149 ) ;
#108 = CARTESIAN_POINT ( 'NONE',  ( 0.000000000000000000, 0.000000000000000000, 10.00000000000000000 ) ) ;
#109 = AXIS2_PLACEMENT_3D ( 'NONE', #24, #416, #316 ) ;
#110 = ORIENTED_EDGE ( 'NONE', *, *, #392, .F. ) ;
#111 = LINE ( 'NONE', #52, #342 ) ;
#112 = ADVANCED_FACE ( 'NONE', ( #361 ), #356, .T. ) ;
#113 = AXIS2_PLACEMENT_3D ( 'NONE', #218, #182, #323 ) ;
#114 = FACE_OUTER_BOUND ( 'NONE', #17, .T. ) ;
#115 = ORIENTED_EDGE ( 'NONE', *, *, #129, .T. ) ;
#116 =( GEOMETRIC_REPRESENTATION_CONTEXT ( 3 ) GLOBAL_UNCERTAINTY_ASSIGNED_CONTEXT ( ( #306 ) ) GLOBAL_UNIT_ASSIGNED_CONTEXT ( ( #236, #384, #265 ) ) REPRESENTATION_CONTEXT ( 'NONE', 'WORKASPACE' ) );
#117 = ORIENTED_EDGE ( 'NONE', *, *, #353, .F. ) ;
#118 = CARTESIAN_POINT ( 'NONE',  ( -4.000000000000010658, 0.000000000000000000, 20.00000000000000000 ) ) ;
#119 = ORIENTED_EDGE ( 'NONE', *, *, #93, .F. ) ;
#120 = CARTESIAN_POINT ( 'NONE',  ( 3.000000000000000444, 3.673940397442060361E-16, 20.00000000000000000 ) ) ;
#121 = ORIENTED_EDGE ( 'NONE', *, *, #235, .T. ) ;
#122 = DIRECTION ( 'NONE',  ( 0.000000000000000000, 0.000000000000000000, -1.000000000000000000 ) ) ;
#123 = ORIENTED_EDGE ( 'NONE', *, *, #392, .T. ) ;
#124 = PLANE ( 'NONE',  #263 ) ;
#125 = SURFACE_STYLE_USAGE ( .BOTH. , #440 ) ;
#126 = VERTEX_POINT ( 'NONE', #19 ) ;
#127 = FACE_OUTER_BOUND ( 'NONE', #70, .T. ) ;
#128 = FACE_OUTER_BOUND ( 'NONE', #402, .T. ) ;
#129 = EDGE_CURVE ( 'NONE', #290, #406, #69, .T. ) ;
#130 = CIRCLE ( 'NONE', #414, 4.000000000000010658 ) ;
#131 = CARTESIAN_POINT ( 'NONE',  ( 0.000000000000000000, 0.000000000000000000, 10.00000000000000000 ) ) ;
#132 = CARTESIAN_POINT ( 'NONE',  ( 0.000000000000000000, 0.000000000000000000, 10.00000000000000000 ) ) ;
#133 = EDGE_CURVE ( 'NONE', #247, #11, #378, .T. ) ;
#134 = DIRECTION ( 'NONE',  ( 0.000000000000000000, 0.000000000000000000, -1.000000000000000000 ) ) ;
#135 = STYLED_ITEM ( 'NONE', ( #462 ), #244 ) ;
#136 = DIRECTION ( 'NONE',  ( 1.000000000000000000, 0.000000000000000000, 0.000000000000000000 ) ) ;
#137 = CARTESIAN_POINT ( 'NONE',  ( -4.000000000000010658, 0.000000000000000000, 20.00000000000000000 ) ) ;
#138 = DIRECTION ( 'NONE',  ( 0.7071067811865467956, 8.659560562354924230E-17, -0.7071067811865483499 ) ) ;
#139 = AXIS2_PLACEMENT_3D ( 'NONE', #272, #468, #268 ) ;
#140 = EDGE_CURVE ( 'NONE', #11, #292, #329, .T. ) ;
#141 = CARTESIAN_POINT ( 'NONE',  ( 6.000000000000001776, 7.960204194457797449E-16, 10.00000000000000000 ) ) ;
#142 = AXIS2_PLACEMENT_3D ( 'NONE', #227, #41, #18 ) ;
#143 = AXIS2_PLACEMENT_3D ( 'NONE', #72, #338, #319 ) ;
#144 = CARTESIAN_POINT ( 'NONE',  ( 0.000000000000000000, 0.000000000000000000, 20.00000000000000000 ) ) ;
#145 = ADVANCED_FACE ( 'NONE', ( #60 ), #62, .T. ) ;
#146 =( NAMED_UNIT ( * ) SI_UNIT ( $, .STERADIAN. ) SOLID_ANGLE_UNIT ( ) );
#147 = EDGE_LOOP ( 'NONE', ( #76, #330, #217, #155 ) ) ;
#148 = VECTOR ( 'NONE', #250, 1000.000000000000000 ) ;
#149 = DIRECTION ( 'NONE',  ( 1.000000000000000000, 0.000000000000000000, -0.000000000000000000 ) ) ;
#150 = ORIENTED_EDGE ( 'NONE', *, *, #430, .T. ) ;
#151 = VECTOR ( 'NONE', #152, 1000.000000000000114 ) ;
#152 = DIRECTION ( 'NONE',  ( -0.7071067811865465735, 0.000000000000000000, -0.7071067811865483499 ) ) ;
#153 = ORIENTED_EDGE ( 'NONE', *, *, #304, .F. ) ;
#154 = DIRECTION ( 'NONE',  ( 0.000000000000000000, 0.000000000000000000, 1.000000000000000000 ) ) ;
#155 = ORIENTED_EDGE ( 'NONE', *, *, #205, .F. ) ;
#156 = VECTOR ( 'NONE', #309, 1000.000000000000000 ) ;
#157 = CARTESIAN_POINT ( 'NONE',  ( 0.000000000000000000, 0.000000000000000000, 10.00000000000000000 ) ) ;
#158 = ORIENTED_EDGE ( 'NONE', *, *, #235, .F. ) ;
#159 = CARTESIAN_POINT ( 'NONE',  ( 0.000000000000000000, 0.000000000000000000, 19.00000000000000355 ) ) ;
#160 = LINE ( 'NONE', #194, #429 ) ;
#161 = PRESENTATION_LAYER_ASSIGNMENT (  '', '', ( #308 ) ) ;
#162 = ORIENTED_EDGE ( 'NONE', *, *, #8, .T. ) ;
#163 = DIRECTION ( 'NONE',  ( 1.000000000000000000, 0.000000000000000000, 0.000000000000000000 ) ) ;
#164 = DIRECTION ( 'NONE',  ( -0.000000000000000000, -0.000000000000000000, -1.000000000000000000 ) ) ;
#165 = DIRECTION ( 'NONE',  ( 0.000000000000000000, 0.000000000000000000, 1.000000000000000000 ) ) ;
#166 = CIRCLE ( 'NONE', #113, 6.000000000000001776 ) ;
#167 = LINE ( 'NONE', #314, #156 ) ;
#168 = VECTOR ( 'NONE', #216, 1000.000000000000000 ) ;
#169 = EDGE_CURVE ( 'NONE', #258, #395, #212, .T. ) ;
#170 = PRODUCT_DEFINITION_FORMATION_WITH_SPECIFIED_SOURCE ( 'ÈÎºÎ', '', #264, .NOT_KNOWN. ) ;
#171 = FILL_AREA_STYLE_COLOUR ( '', #196 ) ;
#172 = AXIS2_PLACEMENT_3D ( 'NONE', #261, #452, #412 ) ;
#173 = CARTESIAN_POINT ( 'NONE',  ( 4.000000000000010658, 4.898587196589425648E-16, 20.00000000000000000 ) ) ;
#174 = AXIS2_PLACEMENT_3D ( 'NONE', #398, #77, #336 ) ;
#175 = EDGE_CURVE ( 'NONE', #397, #106, #58, .T. ) ;
#176 = ORIENTED_EDGE ( 'NONE', *, *, #310, .T. ) ;
#177 = FACE_OUTER_BOUND ( 'NONE', #408, .T. ) ;
#178 = ORIENTED_EDGE ( 'NONE', *, *, #380, .T. ) ;
#179 = MECHANICAL_DESIGN_GEOMETRIC_PRESENTATION_REPRESENTATION (  '', ( #471 ), #420 ) ;
#180 =( NAMED_UNIT ( * ) SI_UNIT ( $, .STERADIAN. ) SOLID_ANGLE_UNIT ( ) );
#181 = ORIENTED_EDGE ( 'NONE', *, *, #22, .F. ) ;
#182 = DIRECTION ( 'NONE',  ( 0.000000000000000000, 0.000000000000000000, 1.000000000000000000 ) ) ;
#183 = ORIENTED_EDGE ( 'NONE', *, *, #8, .F. ) ;
#184 = DIRECTION ( 'NONE',  ( 0.000000000000000000, 0.000000000000000000, 1.000000000000000000 ) ) ;
#185 = ORIENTED_EDGE ( 'NONE', *, *, #337, .T. ) ;
#186 = CARTESIAN_POINT ( 'NONE',  ( -5.000000000000000000, 0.000000000000000000, 10.00000000000000000 ) ) ;
#187 = ORIENTED_EDGE ( 'NONE', *, *, #274, .F. ) ;
#188 = FACE_OUTER_BOUND ( 'NONE', #67, .T. ) ;
#189 = PLANE ( 'NONE',  #107 ) ;
#190 = CIRCLE ( 'NONE', #81, 5.000000000000000000 ) ;
#191 = ORIENTED_EDGE ( 'NONE', *, *, #198, .F. ) ;
#192 = ADVANCED_FACE ( 'NONE', ( #381 ), #457, .T. ) ;
#193 = DIRECTION ( 'NONE',  ( 0.000000000000000000, 0.000000000000000000, -1.000000000000000000 ) ) ;
#194 = CARTESIAN_POINT ( 'NONE',  ( -3.000000000000000444, 0.000000000000000000, 30.00000000000000000 ) ) ;
#195 = FACE_BOUND ( 'NONE', #451, .T. ) ;
#196 = COLOUR_RGB ( '',0.7764705882352941346, 0.7568627450980391913, 0.7372549019607843590 ) ;
#197 =( LENGTH_UNIT ( ) NAMED_UNIT ( * ) SI_UNIT ( .MILLI., .METRE. ) );
#198 = EDGE_CURVE ( 'NONE', #126, #215, #167, .T. ) ;
#199 = SURFACE_STYLE_FILL_AREA ( #466 ) ;
#200 = DIRECTION ( 'NONE',  ( -0.000000000000000000, -0.000000000000000000, -1.000000000000000000 ) ) ;
#201 = DIRECTION ( 'NONE',  ( 0.000000000000000000, 0.000000000000000000, 1.000000000000000000 ) ) ;
#202 = AXIS2_PLACEMENT_3D ( 'NONE', #410, #436, #288 ) ;
#203 = DIRECTION ( 'NONE',  ( 1.000000000000000000, 0.000000000000000000, 0.000000000000000000 ) ) ;
#204 = FILL_AREA_STYLE ('',( #171 ) ) ;
#205 = EDGE_CURVE ( 'NONE', #247, #334, #29, .T. ) ;
#206 = PRODUCT_CONTEXT ( 'NONE', #65, 'mechanical' ) ;
#207 = UNCERTAINTY_MEASURE_WITH_UNIT (LENGTH_MEASURE( 1.000000000000000082E-05 ), #197, 'distance_accuracy_value', 'NONE');
#208 = AXIS2_PLACEMENT_3D ( 'NONE', #335, #193, #51 ) ;
#209 = SURFACE_STYLE_USAGE ( .BOTH. , #386 ) ;
#210 = EDGE_LOOP ( 'NONE', ( #389, #121, #30, #191 ) ) ;
#211 = ADVANCED_FACE ( 'NONE', ( #312 ), #376, .F. ) ;
#212 = CIRCLE ( 'NONE', #251, 3.000000000000000444 ) ;
#213 = AXIS2_PLACEMENT_3D ( 'NONE', #108, #433, #280 ) ;
#214 = DIRECTION ( 'NONE',  ( -0.000000000000000000, -0.000000000000000000, -1.000000000000000000 ) ) ;
#215 = VERTEX_POINT ( 'NONE', #104 ) ;
#216 = DIRECTION ( 'NONE',  ( -0.000000000000000000, -0.000000000000000000, -1.000000000000000000 ) ) ;
#217 = ORIENTED_EDGE ( 'NONE', *, *, #295, .T. ) ;
#218 = CARTESIAN_POINT ( 'NONE',  ( 0.000000000000000000, 0.000000000000000000, 10.00000000000000000 ) ) ;
#219 = DIRECTION ( 'NONE',  ( 1.000000000000000000, 0.000000000000000000, 0.000000000000000000 ) ) ;
#220 = ORIENTED_EDGE ( 'NONE', *, *, #100, .T. ) ;
#221 = EDGE_CURVE ( 'NONE', #292, #11, #269, .T. ) ;
#222 = DIRECTION ( 'NONE',  ( 1.000000000000000000, 0.000000000000000000, -0.000000000000000000 ) ) ;
#223 = ORIENTED_EDGE ( 'NONE', *, *, #198, .T. ) ;
#224 = LINE ( 'NONE', #118, #148 ) ;
#225 = AXIS2_PLACEMENT_3D ( 'NONE', #144, #91, #219 ) ;
#226 = VERTEX_POINT ( 'NONE', #25 ) ;
#227 = CARTESIAN_POINT ( 'NONE',  ( 0.000000000000000000, 0.000000000000000000, 9.000000000000000000 ) ) ;
#228 = ORIENTED_EDGE ( 'NONE', *, *, #337, .F. ) ;
#229 = LINE ( 'NONE', #296, #39 ) ;
#230 = DIRECTION ( 'NONE',  ( -1.000000000000000000, 0.000000000000000000, 0.000000000000000000 ) ) ;
#231 = VECTOR ( 'NONE', #138, 1000.000000000000000 ) ;
#232 = DIRECTION ( 'NONE',  ( 0.000000000000000000, 0.000000000000000000, 1.000000000000000000 ) ) ;
#233 = CARTESIAN_POINT ( 'NONE',  ( 0.000000000000000000, 0.000000000000000000, 20.00000000000000000 ) ) ;
#234 = LINE ( 'NONE', #63, #231 ) ;
#235 = EDGE_CURVE ( 'NONE', #327, #226, #234, .T. ) ;
#236 =( LENGTH_UNIT ( ) NAMED_UNIT ( * ) SI_UNIT ( .MILLI., .METRE. ) );
#237 = FACE_OUTER_BOUND ( 'NONE', #285, .T. ) ;
#238 =( GEOMETRIC_REPRESENTATION_CONTEXT ( 3 ) GLOBAL_UNCERTAINTY_ASSIGNED_CONTEXT ( ( #207 ) ) GLOBAL_UNIT_ASSIGNED_CONTEXT ( ( #197, #270, #146 ) ) REPRESENTATION_CONTEXT ( 'NONE', 'WORKASPACE' ) );
#239 = AXIS2_PLACEMENT_3D ( 'NONE', #74, #214, #375 ) ;
#240 = ORIENTED_EDGE ( 'NONE', *, *, #175, .T. ) ;
#241 = ADVANCED_FACE ( 'NONE', ( #237 ), #343, .T. ) ;
#242 = DIRECTION ( 'NONE',  ( -0.000000000000000000, -0.000000000000000000, -1.000000000000000000 ) ) ;
#243 = ORIENTED_EDGE ( 'NONE', *, *, #140, .T. ) ;
#244 = MANIFOLD_SOLID_BREP ( 'µ¹½Ç1', #450 ) ;
#245 = AXIS2_PLACEMENT_3D ( 'NONE', #367, #44, #328 ) ;
#246 = FILL_AREA_STYLE_COLOUR ( '', #339 ) ;
#247 = VERTEX_POINT ( 'NONE', #352 ) ;
#248 = EDGE_CURVE ( 'NONE', #294, #366, #431, .T. ) ;
#249 = EDGE_LOOP ( 'NONE', ( #115, #178 ) ) ;
#250 = DIRECTION ( 'NONE',  ( -0.7071067811865447972, 0.000000000000000000, -0.7071067811865502373 ) ) ;
#251 = AXIS2_PLACEMENT_3D ( 'NONE', #421, #303, #203 ) ;
#252 = ORIENTED_EDGE ( 'NONE', *, *, #257, .T. ) ;
#253 = CARTESIAN_POINT ( 'NONE',  ( -3.000000000000000444, 0.000000000000000000, 20.00000000000000000 ) ) ;
#254 = ORIENTED_EDGE ( 'NONE', *, *, #22, .T. ) ;
#255 = CARTESIAN_POINT ( 'NONE',  ( 5.000000000000000000, 6.123233995736766282E-16, 20.00000000000000000 ) ) ;
#256 = CLOSED_SHELL ( 'NONE', ( #459, #75, #36, #145, #84, #61, #211, #112, #278, #374, #403 ) ) ;
#257 = EDGE_CURVE ( 'NONE', #406, #247, #229, .T. ) ;
#258 = VERTEX_POINT ( 'NONE', #120 ) ;
#259 = DIRECTION ( 'NONE',  ( -1.000000000000000000, 0.000000000000000000, 0.000000000000000000 ) ) ;
#260 = VERTEX_POINT ( 'NONE', #86 ) ;
#261 = CARTESIAN_POINT ( 'NONE',  ( 0.000000000000000000, 0.000000000000000000, 20.00000000000000000 ) ) ;
#262 = DIRECTION ( 'NONE',  ( 1.000000000000000000, 0.000000000000000000, 0.000000000000000000 ) ) ;
#263 = AXIS2_PLACEMENT_3D ( 'NONE', #369, #409, #222 ) ;
#264 = PRODUCT ( 'Èý½×ÌÝÖák', 'Èý½×ÌÝÖák', '', ( #206 ) ) ;
#265 =( NAMED_UNIT ( * ) SI_UNIT ( $, .STERADIAN. ) SOLID_ANGLE_UNIT ( ) );
#266 = DIRECTION ( 'NONE',  ( 1.000000000000000000, 0.000000000000000000, 0.000000000000000000 ) ) ;
#267 = PRESENTATION_STYLE_ASSIGNMENT (( #426 ) ) ;
#268 = DIRECTION ( 'NONE',  ( 1.000000000000000000, 0.000000000000000000, -0.000000000000000000 ) ) ;
#269 = CIRCLE ( 'NONE', #401, 7.000000000000000000 ) ;
#270 =( NAMED_UNIT ( * ) PLANE_ANGLE_UNIT ( ) SI_UNIT ( $, .RADIAN. ) );
#271 = CIRCLE ( 'NONE', #289, 4.000000000000010658 ) ;
#272 = CARTESIAN_POINT ( 'NONE',  ( 0.000000000000000000, 0.000000000000000000, 10.00000000000000000 ) ) ;
#273 = CARTESIAN_POINT ( 'NONE',  ( 0.000000000000000000, 0.000000000000000000, 30.00000000000000000 ) ) ;
#274 = EDGE_CURVE ( 'NONE', #106, #366, #300, .T. ) ;
#275 = SURFACE_SIDE_STYLE ('',( #199 ) ) ;
#276 = SURFACE_STYLE_FILL_AREA ( #204 ) ;
#277 = DIRECTION ( 'NONE',  ( 0.000000000000000000, 0.000000000000000000, -1.000000000000000000 ) ) ;
#278 = ADVANCED_FACE ( 'NONE', ( #360 ), #124, .T. ) ;
#279 = CIRCLE ( 'NONE', #142, 7.000000000000000000 ) ;
#280 = DIRECTION ( 'NONE',  ( 1.000000000000000000, 0.000000000000000000, -0.000000000000000000 ) ) ;
#281 = CIRCLE ( 'NONE', #42, 1.999999999999994893 ) ;
#282 = COLOUR_RGB ( '',0.7764705882352941346, 0.7568627450980391913, 0.7372549019607843590 ) ;
#283 = CARTESIAN_POINT ( 'NONE',  ( 0.000000000000000000, 0.000000000000000000, 30.00000000000000000 ) ) ;
#284 = CARTESIAN_POINT ( 'NONE',  ( 7.000000000000000000, 8.572527594031473190E-16, 0.000000000000000000 ) ) ;
#285 = EDGE_LOOP ( 'NONE', ( #185, #34, #243, #119 ) ) ;
#286 = AXIS2_PLACEMENT_3D ( 'NONE', #273, #277, #64 ) ;
#287 = EDGE_CURVE ( 'NONE', #366, #294, #105, .T. ) ;
#288 = DIRECTION ( 'NONE',  ( -1.000000000000000000, 0.000000000000000000, 0.000000000000000000 ) ) ;
#289 = AXIS2_PLACEMENT_3D ( 'NONE', #233, #201, #387 ) ;
#290 = VERTEX_POINT ( 'NONE', #80 ) ;
#291 = CARTESIAN_POINT ( 'NONE',  ( 1.999999999999994893, 3.061616997868380183E-16, 30.00000000000000000 ) ) ;
#292 = VERTEX_POINT ( 'NONE', #47 ) ;
#293 = DIRECTION ( 'NONE',  ( 0.000000000000000000, 0.000000000000000000, 1.000000000000000000 ) ) ;
#294 = VERTEX_POINT ( 'NONE', #186 ) ;
#295 = EDGE_CURVE ( 'NONE', #290, #334, #301, .T. ) ;
#296 = CARTESIAN_POINT ( 'NONE',  ( 6.000000000000001776, 7.347880794884121708E-16, 10.00000000000000000 ) ) ;
#297 = ORIENTED_EDGE ( 'NONE', *, *, #133, .F. ) ;
#298 = CARTESIAN_POINT ( 'NONE',  ( 5.000000000000000000, 6.123233995736766282E-16, 10.00000000000000000 ) ) ;
#299 = CARTESIAN_POINT ( 'NONE',  ( 5.000000000000000000, 6.123233995736766282E-16, 19.00000000000000355 ) ) ;
#300 = LINE ( 'NONE', #255, #305 ) ;
#301 = LINE ( 'NONE', #371, #151 ) ;
#302 = SURFACE_STYLE_FILL_AREA ( #396 ) ;
#303 = DIRECTION ( 'NONE',  ( 0.000000000000000000, 0.000000000000000000, 1.000000000000000000 ) ) ;
#304 = EDGE_CURVE ( 'NONE', #226, #215, #66, .T. ) ;
#305 = VECTOR ( 'NONE', #363, 1000.000000000000000 ) ;
#306 = UNCERTAINTY_MEASURE_WITH_UNIT (LENGTH_MEASURE( 1.000000000000000082E-05 ), #236, 'distance_accuracy_value', 'NONE');
#307 = CARTESIAN_POINT ( 'NONE',  ( 7.000000000000000000, 8.572527594031473190E-16, 10.00000000000000000 ) ) ;
#308 = STYLED_ITEM ( 'NONE', ( #267 ), #32 ) ;
#309 = DIRECTION ( 'NONE',  ( -0.7071067811865467956, 0.000000000000000000, -0.7071067811865483499 ) ) ;
#310 = EDGE_CURVE ( 'NONE', #215, #226, #324, .T. ) ;
#311 = APPLICATION_PROTOCOL_DEFINITION ( 'draft international standard', 'automotive_design', 1998, #65 ) ;
#312 = FACE_OUTER_BOUND ( 'NONE', #399, .T. ) ;
#313 = CONICAL_SURFACE ( 'NONE', #172, 4.000000000000010658, 0.7853981633974445042 ) ;
#314 = CARTESIAN_POINT ( 'NONE',  ( -1.999999999999994893, 0.000000000000000000, 30.00000000000000000 ) ) ;
#315 = CARTESIAN_POINT ( 'NONE',  ( 0.000000000000000000, 0.000000000000000000, 0.000000000000000000 ) ) ;
#316 = DIRECTION ( 'NONE',  ( 1.000000000000000000, 0.000000000000000000, 0.000000000000000000 ) ) ;
#317 = ORIENTED_EDGE ( 'NONE', *, *, #26, .T. ) ;
#318 = ORIENTED_EDGE ( 'NONE', *, *, #380, .F. ) ;
#319 = DIRECTION ( 'NONE',  ( -1.000000000000000000, 0.000000000000000000, 0.000000000000000000 ) ) ;
#320 = ORIENTED_EDGE ( 'NONE', *, *, #430, .F. ) ;
#321 = FACE_OUTER_BOUND ( 'NONE', #368, .T. ) ;
#322 = ORIENTED_EDGE ( 'NONE', *, *, #287, .F. ) ;
#323 = DIRECTION ( 'NONE',  ( 1.000000000000000000, 0.000000000000000000, 0.000000000000000000 ) ) ;
#324 = CIRCLE ( 'NONE', #341, 3.000000000000000444 ) ;
#325 = ORIENTED_EDGE ( 'NONE', *, *, #221, .T. ) ;
#326 = CARTESIAN_POINT ( 'NONE',  ( 0.000000000000000000, 0.000000000000000000, 20.00000000000000000 ) ) ;
#327 = VERTEX_POINT ( 'NONE', #291 ) ;
#328 = DIRECTION ( 'NONE',  ( -1.000000000000000000, 0.000000000000000000, 0.000000000000000000 ) ) ;
#329 = CIRCLE ( 'NONE', #472, 7.000000000000000000 ) ;
#330 = ORIENTED_EDGE ( 'NONE', *, *, #129, .F. ) ;
#331 = CARTESIAN_POINT ( 'NONE',  ( 0.000000000000000000, 0.000000000000000000, 10.00000000000000000 ) ) ;
#332 = CARTESIAN_POINT ( 'NONE',  ( 0.000000000000000000, 0.000000000000000000, 20.00000000000000000 ) ) ;
#333 = CIRCLE ( 'NONE', #351, 1.999999999999994893 ) ;
#334 = VERTEX_POINT ( 'NONE', #400 ) ;
#335 = CARTESIAN_POINT ( 'NONE',  ( 0.000000000000000000, 0.000000000000000000, 28.99999999999998934 ) ) ;
#336 = DIRECTION ( 'NONE',  ( -1.000000000000000000, 0.000000000000000000, 0.000000000000000000 ) ) ;
#337 = EDGE_CURVE ( 'NONE', #334, #247, #279, .T. ) ;
#338 = DIRECTION ( 'NONE',  ( 0.000000000000000000, 0.000000000000000000, -1.000000000000000000 ) ) ;
#339 = COLOUR_RGB ( '',0.7764705882352941346, 0.7568627450980391913, 0.7372549019607843590 ) ;
#340 = AXIS2_PLACEMENT_3D ( 'NONE', #465, #98, #136 ) ;
#341 = AXIS2_PLACEMENT_3D ( 'NONE', #7, #15, #163 ) ;
#342 = VECTOR ( 'NONE', #164, 1000.000000000000000 ) ;
#343 = CYLINDRICAL_SURFACE ( 'NONE', #377, 7.000000000000000000 ) ;
#344 = FACE_OUTER_BOUND ( 'NONE', #448, .T. ) ;
#345 =( NAMED_UNIT ( * ) SI_UNIT ( $, .STERADIAN. ) SOLID_ANGLE_UNIT ( ) );
#346 = DIRECTION ( 'NONE',  ( 0.000000000000000000, 0.000000000000000000, 1.000000000000000000 ) ) ;
#347 = FACE_OUTER_BOUND ( 'NONE', #210, .T. ) ;
#348 = SHAPE_DEFINITION_REPRESENTATION ( #90, #32 ) ;
#349 = DIRECTION ( 'NONE',  ( -1.000000000000000000, 0.000000000000000000, 0.000000000000000000 ) ) ;
#350 =( NAMED_UNIT ( * ) PLANE_ANGLE_UNIT ( ) SI_UNIT ( $, .RADIAN. ) );
#351 = AXIS2_PLACEMENT_3D ( 'NONE', #449, #184, #442 ) ;
#352 = CARTESIAN_POINT ( 'NONE',  ( 7.000000000000000000, 8.572527594031473190E-16, 9.000000000000000000 ) ) ;
#353 = EDGE_CURVE ( 'NONE', #126, #327, #333, .T. ) ;
#354 = ORIENTED_EDGE ( 'NONE', *, *, #140, .F. ) ;
#355 = AXIS2_PLACEMENT_3D ( 'NONE', #21, #232, #266 ) ;
#356 = CYLINDRICAL_SURFACE ( 'NONE', #174, 3.000000000000000444 ) ;
#357 = ADVANCED_FACE ( 'NONE', ( #188 ), #14, .T. ) ;
#358 = ORIENTED_EDGE ( 'NONE', *, *, #390, .T. ) ;
#359 = ORIENTED_EDGE ( 'NONE', *, *, #295, .F. ) ;
#360 = FACE_OUTER_BOUND ( 'NONE', #9, .T. ) ;
#361 = FACE_OUTER_BOUND ( 'NONE', #473, .T. ) ;
#362 = ORIENTED_EDGE ( 'NONE', *, *, #93, .T. ) ;
#363 = DIRECTION ( 'NONE',  ( -0.000000000000000000, -0.000000000000000000, -1.000000000000000000 ) ) ;
#364 = AXIS2_PLACEMENT_3D ( 'NONE', #331, #122, #259 ) ;
#365 = EDGE_CURVE ( 'NONE', #106, #260, #190, .T. ) ;
#366 = VERTEX_POINT ( 'NONE', #298 ) ;
#367 = CARTESIAN_POINT ( 'NONE',  ( 0.000000000000000000, 0.000000000000000000, 30.00000000000000000 ) ) ;
#368 = EDGE_LOOP ( 'NONE', ( #176, #150, #48, #40 ) ) ;
#369 = CARTESIAN_POINT ( 'NONE',  ( 0.000000000000000000, 0.000000000000000000, 30.00000000000000000 ) ) ;
#370 = ORIENTED_EDGE ( 'NONE', *, *, #248, .F. ) ;
#371 = CARTESIAN_POINT ( 'NONE',  ( -6.000000000000001776, 0.000000000000000000, 10.00000000000000000 ) ) ;
#372 = DIRECTION ( 'NONE',  ( 1.000000000000000000, 0.000000000000000000, 0.000000000000000000 ) ) ;
#373 = CONICAL_SURFACE ( 'NONE', #438, 6.000000000000001776, 0.7853981633974471688 ) ;
#374 = ADVANCED_FACE ( 'NONE', ( #127 ), #313, .T. ) ;
#375 = DIRECTION ( 'NONE',  ( -1.000000000000000000, 0.000000000000000000, 0.000000000000000000 ) ) ;
#376 = PLANE ( 'NONE',  #139 ) ;
#377 = AXIS2_PLACEMENT_3D ( 'NONE', #94, #23, #382 ) ;
#378 = LINE ( 'NONE', #307, #79 ) ;
#379 = CARTESIAN_POINT ( 'NONE',  ( 0.000000000000000000, 0.000000000000000000, 10.00000000000000000 ) ) ;
#380 = EDGE_CURVE ( 'NONE', #406, #290, #166, .T. ) ;
#381 = FACE_OUTER_BOUND ( 'NONE', #444, .T. ) ;
#382 = DIRECTION ( 'NONE',  ( -1.000000000000000000, 0.000000000000000000, 0.000000000000000000 ) ) ;
#383 = PLANE ( 'NONE',  #50 ) ;
#384 =( NAMED_UNIT ( * ) PLANE_ANGLE_UNIT ( ) SI_UNIT ( $, .RADIAN. ) );
#385 = UNCERTAINTY_MEASURE_WITH_UNIT (LENGTH_MEASURE( 1.000000000000000082E-05 ), #33, 'distance_accuracy_value', 'NONE');
#386 = SURFACE_SIDE_STYLE ('',( #276 ) ) ;
#387 = DIRECTION ( 'NONE',  ( 1.000000000000000000, 0.000000000000000000, 0.000000000000000000 ) ) ;
#388 = MECHANICAL_DESIGN_GEOMETRIC_PRESENTATION_REPRESENTATION (  '', ( #135 ), #238 ) ;
#389 = ORIENTED_EDGE ( 'NONE', *, *, #45, .F. ) ;
#390 = EDGE_CURVE ( 'NONE', #441, #260, #224, .T. ) ;
#391 = FACE_OUTER_BOUND ( 'NONE', #249, .T. ) ;
#392 = EDGE_CURVE ( 'NONE', #441, #397, #130, .T. ) ;
#393 = DIRECTION ( 'NONE',  ( 0.000000000000000000, 0.000000000000000000, 1.000000000000000000 ) ) ;
#394 = VECTOR ( 'NONE', #428, 1000.000000000000000 ) ;
#395 = VERTEX_POINT ( 'NONE', #253 ) ;
#396 = FILL_AREA_STYLE ('',( #246 ) ) ;
#397 = VERTEX_POINT ( 'NONE', #404 ) ;
#398 = CARTESIAN_POINT ( 'NONE',  ( 0.000000000000000000, 0.000000000000000000, 30.00000000000000000 ) ) ;
#399 = EDGE_LOOP ( 'NONE', ( #370, #322 ) ) ;
#400 = CARTESIAN_POINT ( 'NONE',  ( -7.000000000000000000, 0.000000000000000000, 9.000000000000000000 ) ) ;
#401 = AXIS2_PLACEMENT_3D ( 'NONE', #463, #346, #95 ) ;
#402 = EDGE_LOOP ( 'NONE', ( #187, #73, #162, #13 ) ) ;
#403 = ADVANCED_FACE ( 'NONE', ( #83 ), #92, .T. ) ;
#404 = CARTESIAN_POINT ( 'NONE',  ( 4.000000000000010658, 5.510910596163096458E-16, 20.00000000000000000 ) ) ;
#405 = AXIS2_PLACEMENT_3D ( 'NONE', #16, #437, #372 ) ;
#406 = VERTEX_POINT ( 'NONE', #141 ) ;
#407 = DIRECTION ( 'NONE',  ( 1.000000000000000000, 0.000000000000000000, 0.000000000000000000 ) ) ;
#408 = EDGE_LOOP ( 'NONE', ( #123, #35 ) ) ;
#409 = DIRECTION ( 'NONE',  ( 0.000000000000000000, 0.000000000000000000, 1.000000000000000000 ) ) ;
#410 = CARTESIAN_POINT ( 'NONE',  ( 0.000000000000000000, 0.000000000000000000, 20.00000000000000000 ) ) ;
#411 = ORIENTED_EDGE ( 'NONE', *, *, #304, .T. ) ;
#412 = DIRECTION ( 'NONE',  ( -1.000000000000000000, 0.000000000000000000, 0.000000000000000000 ) ) ;
#413 = CYLINDRICAL_SURFACE ( 'NONE', #202, 5.000000000000000000 ) ;
#414 = AXIS2_PLACEMENT_3D ( 'NONE', #326, #154, #446 ) ;
#415 = AXIS2_PLACEMENT_3D ( 'NONE', #131, #293, #10 ) ;
#416 = DIRECTION ( 'NONE',  ( 0.000000000000000000, 0.000000000000000000, 1.000000000000000000 ) ) ;
#417 = ADVANCED_FACE ( 'NONE', ( #419 ), #373, .T. ) ;
#418 = CARTESIAN_POINT ( 'NONE',  ( 0.000000000000000000, 0.000000000000000000, 0.000000000000000000 ) ) ;
#419 = FACE_OUTER_BOUND ( 'NONE', #147, .T. ) ;
#420 =( GEOMETRIC_REPRESENTATION_CONTEXT ( 3 ) GLOBAL_UNCERTAINTY_ASSIGNED_CONTEXT ( ( #385 ) ) GLOBAL_UNIT_ASSIGNED_CONTEXT ( ( #33, #89, #180 ) ) REPRESENTATION_CONTEXT ( 'NONE', 'WORKASPACE' ) );
#421 = CARTESIAN_POINT ( 'NONE',  ( 0.000000000000000000, 0.000000000000000000, 20.00000000000000000 ) ) ;
#422 = LINE ( 'NONE', #28, #394 ) ;
#423 = DIRECTION ( 'NONE',  ( 0.7071067811865447972, 8.659560562354899578E-17, -0.7071067811865502373 ) ) ;
#424 = DIRECTION ( 'NONE',  ( 1.000000000000000000, 0.000000000000000000, -0.000000000000000000 ) ) ;
#425 =( GEOMETRIC_REPRESENTATION_CONTEXT ( 3 ) GLOBAL_UNCERTAINTY_ASSIGNED_CONTEXT ( ( #57 ) ) GLOBAL_UNIT_ASSIGNED_CONTEXT ( ( #56, #350, #345 ) ) REPRESENTATION_CONTEXT ( 'NONE', 'WORKASPACE' ) );
#426 = SURFACE_STYLE_USAGE ( .BOTH. , #275 ) ;
#427 = DIRECTION ( 'NONE',  ( -0.000000000000000000, -0.000000000000000000, -1.000000000000000000 ) ) ;
#428 = DIRECTION ( 'NONE',  ( -0.000000000000000000, -0.000000000000000000, -1.000000000000000000 ) ) ;
#429 = VECTOR ( 'NONE', #242, 1000.000000000000000 ) ;
#430 = EDGE_CURVE ( 'NONE', #226, #258, #422, .T. ) ;
#431 = CIRCLE ( 'NONE', #415, 5.000000000000000000 ) ;
#432 = ORIENTED_EDGE ( 'NONE', *, *, #26, .F. ) ;
#433 = DIRECTION ( 'NONE',  ( 0.000000000000000000, 0.000000000000000000, 1.000000000000000000 ) ) ;
#434 = ORIENTED_EDGE ( 'NONE', *, *, #45, .T. ) ;
#435 = EDGE_CURVE ( 'NONE', #397, #441, #271, .T. ) ;
#436 = DIRECTION ( 'NONE',  ( -0.000000000000000000, -0.000000000000000000, -1.000000000000000000 ) ) ;
#437 = DIRECTION ( 'NONE',  ( 0.000000000000000000, 0.000000000000000000, -1.000000000000000000 ) ) ;
#438 = AXIS2_PLACEMENT_3D ( 'NONE', #379, #134, #96 ) ;
#439 = ORIENTED_EDGE ( 'NONE', *, *, #205, .T. ) ;
#440 = SURFACE_SIDE_STYLE ('',( #302 ) ) ;
#441 = VERTEX_POINT ( 'NONE', #137 ) ;
#442 = DIRECTION ( 'NONE',  ( 1.000000000000000000, 0.000000000000000000, 0.000000000000000000 ) ) ;
#443 = PRODUCT_RELATED_PRODUCT_CATEGORY ( 'part', '', ( #264 ) ) ;
#444 = EDGE_LOOP ( 'NONE', ( #297, #439, #362, #325 ) ) ;
#445 = PRESENTATION_LAYER_ASSIGNMENT (  '', '', ( #471 ) ) ;
#446 = DIRECTION ( 'NONE',  ( 1.000000000000000000, 0.000000000000000000, 0.000000000000000000 ) ) ;
#447 = VECTOR ( 'NONE', #423, 1000.000000000000000 ) ;
#448 = EDGE_LOOP ( 'NONE', ( #87, #354 ) ) ;
#449 = CARTESIAN_POINT ( 'NONE',  ( 0.000000000000000000, 0.000000000000000000, 30.00000000000000000 ) ) ;
#450 = CLOSED_SHELL ( 'NONE', ( #357, #241, #192, #469, #453, #417 ) ) ;
#451 = EDGE_LOOP ( 'NONE', ( #432, #82 ) ) ;
#452 = DIRECTION ( 'NONE',  ( 0.000000000000000000, 0.000000000000000000, -1.000000000000000000 ) ) ;
#453 = ADVANCED_FACE ( 'NONE', ( #344 ), #383, .F. ) ;
#454 = CARTESIAN_POINT ( 'NONE',  ( -5.000000000000000000, 0.000000000000000000, 20.00000000000000000 ) ) ;
#455 = ORIENTED_EDGE ( 'NONE', *, *, #274, .T. ) ;
#456 = DIRECTION ( 'NONE',  ( 0.000000000000000000, 0.000000000000000000, -1.000000000000000000 ) ) ;
#457 = CYLINDRICAL_SURFACE ( 'NONE', #55, 7.000000000000000000 ) ;
#458 = PRESENTATION_LAYER_ASSIGNMENT (  '', '', ( #135 ) ) ;
#459 = ADVANCED_FACE ( 'NONE', ( #347 ), #5, .T. ) ;
#460 = CIRCLE ( 'NONE', #225, 3.000000000000000444 ) ;
#461 = MECHANICAL_DESIGN_GEOMETRIC_PRESENTATION_REPRESENTATION (  '', ( #308 ), #425 ) ;
#462 = PRESENTATION_STYLE_ASSIGNMENT (( #209 ) ) ;
#463 = CARTESIAN_POINT ( 'NONE',  ( 0.000000000000000000, 0.000000000000000000, 0.000000000000000000 ) ) ;
#464 = APPLICATION_PROTOCOL_DEFINITION ( 'draft international standard', 'automotive_design', 1998, #49 ) ;
#465 = CARTESIAN_POINT ( 'NONE',  ( 0.000000000000000000, 0.000000000000000000, 9.000000000000000000 ) ) ;
#466 = FILL_AREA_STYLE ('',( #101 ) ) ;
#467 = PRODUCT_DEFINITION_CONTEXT ( 'detailed design', #49, 'design' ) ;
#468 = DIRECTION ( 'NONE',  ( 0.000000000000000000, 0.000000000000000000, 1.000000000000000000 ) ) ;
#469 = ADVANCED_FACE ( 'NONE', ( #391 ), #68, .T. ) ;
#470 = ORIENTED_EDGE ( 'NONE', *, *, #390, .F. ) ;
#471 = STYLED_ITEM ( 'NONE', ( #2 ), #103 ) ;
#472 = AXIS2_PLACEMENT_3D ( 'NONE', #418, #165, #102 ) ;
#473 = EDGE_LOOP ( 'NONE', ( #320, #411, #220, #317 ) ) ;
ENDSEC;
END-ISO-10303-21;
